HIERARCHY
ROOT pelvis
{
  OFFSET 0 100 0
  CHANNELS 6 Xposition Yposition Zposition Zrotation Xrotation Yrotation
  JOINT pelvis_right_femur
  {
    OFFSET -10.78128 -3.44521 -0.5502486
    CHANNELS 3 Zrotation Xrotation Yrotation
    JOINT right_femur_tibia
    {
      OFFSET -0.8047443 -44.0398 -0.1307829
      CHANNELS 3 Zrotation Xrotation Yrotation
      JOINT right_tibia_foot
      {
        OFFSET 3.006224 -47.83518 -5
        CHANNELS 3 Zrotation Xrotation Yrotation
        End Site
        {
          OFFSET 0 -5 15
        }
      }
    }
  }
  JOINT pelvis_left_femur
  {
    OFFSET 10.78128 -3.44521 -0.5502486
    CHANNELS 3 Zrotation Xrotation Yrotation
    JOINT left_femur_tibia
    {
      OFFSET 0.8047443 -44.0398 -0.1307829
      CHANNELS 3 Zrotation Xrotation Yrotation
      JOINT left_tibia_foot
      {
        OFFSET -4.370144 -48.10324 -4.275266
        CHANNELS 3 Zrotation Xrotation Yrotation
        End Site
        {
          OFFSET 0 -5 15
        }
      }
    }
  }
  JOINT pelvis_spine1
  {
    OFFSET 0 6.468898 -3.129235
    CHANNELS 3 Zrotation Xrotation Yrotation
    JOINT spine1
    {
      OFFSET 0 23.15396 4.99043
      CHANNELS 3 Zrotation Xrotation Yrotation
      JOINT spine2
      {
        OFFSET 0 20.79997 -5.064912
        CHANNELS 3 Zrotation Xrotation Yrotation
        JOINT neck
        {
          OFFSET 0 14.38658 9.616178
          CHANNELS 3 Zrotation Xrotation Yrotation
          End Site
          {
            OFFSET 0 20 0
          }
        }
      }
      JOINT right_manubrium
      {
        OFFSET -5.722621 16.35077 3.967754
        CHANNELS 3 Zrotation Xrotation Yrotation
        JOINT right_clavicle
        {
          OFFSET -13.16364 1.694482 -4.693211
          CHANNELS 3 Zrotation Xrotation Yrotation
          JOINT right_humerus
          {
            OFFSET -28.5034 -0.3100689 -2.792744
            CHANNELS 3 Zrotation Xrotation Yrotation
            JOINT right_radius
            {
              OFFSET -25.15693 0.02248979 -1.271978
              CHANNELS 3 Zrotation Xrotation Yrotation
              End Site
              {
                OFFSET -15 0 0
              }
            }
          }
        }
      }
      JOINT left_manubrium
      {
        OFFSET 5.722621 16.35077 3.967754
        CHANNELS 3 Zrotation Xrotation Yrotation
        JOINT left_clavicle
        {
          OFFSET 13.16364 1.694482 -4.693211
          CHANNELS 3 Zrotation Xrotation Yrotation
          JOINT left_humerus
          {
            OFFSET 29.39168 -1.063119 -2.237045
            CHANNELS 3 Zrotation Xrotation Yrotation
            JOINT left_radius
            {
              OFFSET 24.59957 -0.9528479 0.9047498
              CHANNELS 3 Zrotation Xrotation Yrotation
              End Site
              {
                OFFSET 15 -0 -0
              }
            }
          }
        }
      }
    }
  }
}
MOTION
Frames: 15
Frame Time: 0.0416666666667
0 103.5113 0 0.6769231 -1.564407 0.1929903 3.527177 -14.488 8.577472 3.677234e-07 36.76758 4.366869e-07 -7.544958 -18.99035 -4.314128 -6.614758 6.279301 -22.34717 -9.790234e-06 5.331482 -9.672413e-06 6.690658 -17.27187 25.48572 -3.738723 -2.186038 4.394655 2.399594 8.859525 -7.627233 1.048832 22.67638 6.599166 2.76212 -23.97679 8.899187 6.192412 -20.23572 11.5931 84.89437 36.75042 -17.09355 3.79534e-07 -1.180974e-07 16.99521 -6.645623 8.513961 5.130206 4.804043 -19.01895 -1.628683 -95.21674 29.94813 24.46061 -3.570261e-07 -4.490338e-07 -14.86284 3.860849 17.62624 9.845076
0.3307633 103.4691 1.113136 0.6437113 -1.485479 0.4591061 3.648924 -16.23721 8.775202 -9.552615e-09 38.73142 7.005814e-07 -7.009634 -17.73751 -4.414221 -6.68751 8.130944 -22.53379 -8.678515e-06 5.217857 -8.463089e-06 6.629677 -17.78377 25.13272 -3.705653 -2.29344 4.254222 2.424181 8.979999 -7.815581 1.056741 22.50795 6.743697 2.796095 -24.088 9.069212 6.300307 -20.08641 11.5936 85.54048 36.47846 -17.96342 2.669693e-07 2.853022e-08 16.83865 -6.666728 8.71743 4.969311 4.828948 -19.16807 -1.759785 -95.02167 29.91668 24.16246 -4.535416e-07 -4.071344e-07 -15.46174 3.787246 17.40959 10.03166
0.6720079 103.4734 2.396937 0.5793623 -1.217613 0.7912594 3.838572 -18.24768 8.690488 -4.180174e-08 39.05073 5.702439e-07 -6.568902 -16.36595 -4.29971 -6.707683 9.846695 -22.53478 -7.271865e-06 5.175804 -6.63328e-06 6.400331 -18.42606 24.59948 -3.614475 -2.352336 4.11584 2.469302 9.033812 -7.981074 1.048741 22.33142 6.927891 2.889386 -24.28751 9.21923 6.294397 -19.88027 11.56956 86.14461 36.17869 -18.86445 2.020653e-07 1.038067e-07 16.47754 -6.806692 8.835435 4.851393 4.996188 -19.43932 -1.881706 -94.64456 29.79055 23.57252 -4.628222e-07 -4.013411e-07 -16.4769 3.899144 17.20602 9.973209
1.015398 103.4604 3.919082 0.4770909 -0.7285844 1.165364 4.074464 -20.41985 8.316823 3.077681e-07 37.72126 6.19216e-09 -6.245747 -14.85213 -3.92895 -6.694132 11.30824 -22.34611 -5.545618e-06 5.240577 -4.152824e-06 5.990318 -19.15613 23.87581 -3.465002 -2.366963 3.994944 2.534866 9.020313 -8.115651 1.014576 22.13487 7.161838 3.054963 -24.60553 9.342288 6.191947 -19.63073 11.52957 86.64569 35.9059 -19.75049 1.876564e-07 1.021616e-07 15.92368 -7.069958 8.862671 4.79903 5.295338 -19.81899 -1.980513 -94.11103 29.56426 22.76362 -3.742176e-07 -4.330021e-07 -17.87425 4.188157 17.00719 9.688317
1.350935 103.3406 5.735311 0.3429491 -0.075298 1.551385 4.353519 -22.72197 7.701825 9.921324e-07 34.65261 -9.354597e-07 -5.992244 -13.38916 -3.359044 -6.638427 12.46825 -21.96067 -3.624652e-06 5.412251 -1.114562e-06 5.397722 -19.98032 23.00649 -3.257968 -2.325192 3.911209 2.615744 8.942885 -8.216483 0.9694387 21.94343 7.425393 3.270793 -24.99577 9.447102 5.980696 -19.35919 11.47916 87.09909 35.60901 -20.62811 2.247846e-07 3.317941e-08 15.25267 -7.465072 8.828114 4.797702 5.733 -20.30765 -2.057195 -93.49801 29.24476 21.74435 -2.042134e-07 -5.137067e-07 -19.66823 4.613913 16.80725 9.215762
1.67267 103.0761 7.866862 0.1791715 0.6838049 1.926857 4.623502 -24.8482 6.937853 1.722874e-06 30.56665 -1.949448e-06 -5.880512 -11.99378 -2.658621 -6.559507 13.26492 -21.43656 -1.673357e-06 5.810303 2.05802e-06 4.679892 -20.71112 22.03376 -3.018225 -2.251799 3.851855 2.706869 8.815734 -8.281448 0.9070747 21.73935 7.68922 3.514247 -25.42461 9.507246 5.724529 -19.06203 11.41849 87.353 35.39013 -21.37612 2.918755e-07 -9.015845e-08 14.47866 -7.893186 8.735102 4.840997 6.209644 -20.81208 -2.096915 -92.77449 28.87471 20.6551 1.638096e-08 -6.166724e-07 -21.54402 5.116357 16.60675 8.633582
1.975136 102.6534 10.36531 -0.03143592 1.480729 2.279174 4.887983 -26.76235 6.133981 2.047288e-06 25.98924 -2.61434e-06 -5.88267 -10.70902 -1.994842 -6.416394 13.91837 -20.78941 4.216197e-07 6.427593 5.106553e-06 3.780758 -21.26462 20.92201 -2.744232 -2.166259 3.775323 2.812979 8.641478 -8.344927 0.8455396 21.53261 7.912704 3.733529 -25.83796 9.532078 5.45025 -18.72282 11.33234 87.56249 35.2398 -22.05072 3.386727e-07 -2.360363e-07 13.63078 -8.325438 8.679057 4.935569 6.66623 -21.28902 -2.099439 -92.01471 28.47652 19.54477 2.141177e-07 -6.873882e-07 -23.33724 5.620513 16.37609 8.061667
2.26072 102.1225 13.30994 -0.296954 2.179243 2.608115 5.153861 -28.16484 5.466838 1.641658e-06 21.99963 -2.620803e-06 -5.973822 -9.546776 -1.552548 -6.195704 14.53756 -20.08724 2.761403e-06 7.530806 7.717841e-06 2.646525 -21.44514 19.69623 -2.436784 -2.088404 3.655466 2.918925 8.440634 -8.410905 0.8126869 21.36281 8.047655 3.874474 -26.17381 9.537822 5.214202 -18.34034 11.21531 87.88431 35.14848 -22.63338 3.096115e-07 -3.605345e-07 12.78893 -8.716977 8.744435 5.088145 6.990037 -21.62742 -2.06429 -91.43484 28.11381 18.62692 3.143893e-07 -6.577949e-07 -24.66115 6.001137 16.09975 7.697407
2.540282 101.6105 16.79383 -0.6337583 2.727523 2.922869 5.457588 -28.79828 5.080284 3.144167e-07 19.43509 -1.771262e-06 -6.176973 -8.437055 -1.429347 -5.892786 15.16431 -19.36876 5.412798e-06 9.442511 9.588395e-06 1.28379 -21.01462 18.34504 -2.089334 -2.058769 3.479244 3.026256 8.247828 -8.498698 0.8051781 21.19715 8.063799 3.906343 -26.42201 9.506053 5.087039 -17.91843 11.07328 88.2937 35.18047 -23.09458 1.606568e-07 -4.254118e-07 11.98285 -8.982631 8.992773 5.295904 7.06246 -21.74569 -1.993842 -91.06219 27.8126 18.1 2.690363e-07 -4.66282e-07 -25.2089 6.183139 15.75597 7.66658
2.824733 101.2772 20.83013 -0.9832926 3.02063 3.226115 5.762517 -28.46401 5.012043 -1.669707e-06 18.7539 -2.141962e-07 -6.518755 -7.404369 -1.628325 -5.569298 15.63589 -18.66235 7.815441e-06 12.38173 1.01735e-05 -0.07338675 -19.89184 17.05588 -1.752088 -2.08616 3.278559 3.119926 8.132717 -8.60338 0.8056413 21.03753 7.954976 3.833556 -26.53803 9.397876 5.111189 -17.48168 10.94129 88.65444 35.38549 -23.38345 -7.982683e-08 -4.256863e-07 11.20909 -9.094475 9.396184 5.523373 6.829013 -21.64905 -1.924268 -90.78435 27.5803 17.9767 1.03072e-07 -1.401478e-07 -24.89302 6.17432 15.37098 7.928042
3.123549 101.2466 25.4421 -1.339902 3.048682 3.497314 6.14068 -27.19081 5.228682 -4.104563e-06 19.21195 1.859913e-06 -6.912963 -6.60447 -2.086267 -5.196992 15.74064 -17.88197 1.004518e-05 16.59841 9.775812e-06 -1.460799 -18.12122 15.85694 -1.379581 -2.139036 3.123199 3.192666 8.11283 -8.69916 0.8272456 20.90397 7.723346 3.664332 -26.52427 9.223668 5.216732 -17.08625 10.842 89.03929 35.61463 -23.53499 -3.826534e-07 -3.612333e-07 10.56048 -9.135274 9.957427 5.751436 6.357038 -21.40268 -1.871043 -90.71992 27.35673 18.2661 -1.652066e-07 2.724326e-07 -23.92332 5.998314 14.94023 8.436377
3.421869 101.5986 30.49846 -1.602793 2.745557 3.672395 6.571994 -24.94264 5.641673 -6.10427e-06 19.9541 3.717089e-06 -7.356629 -6.369888 -2.64582 -4.842769 14.97786 -17.005 1.12534e-05 22.48141 8.22974e-06 -2.629497 -15.83396 15.01728 -1.013927 -2.153223 3.129126 3.226269 8.234694 -8.729077 0.8540593 20.84204 7.397359 3.453308 -26.3488 8.952246 5.36932 -16.76935 10.83604 89.20544 35.85253 -23.49001 -6.311198e-07 -2.809951e-07 10.03122 -9.10371 10.5291 5.87263 5.728881 -21.1089 -1.864053 -90.73771 27.14808 18.79267 -4.15547e-07 6.255542e-07 -22.61919 5.735054 14.53573 8.99171
3.688038 102.3481 35.80983 -1.686086 2.094506 3.678228 6.958619 -21.79551 6.083702 -6.958241e-06 20.26368 4.710094e-06 -7.763474 -6.807481 -3.178939 -4.550894 13.02066 -15.97561 1.110578e-05 29.90421 5.783605e-06 -3.527953 -13.31279 14.68393 -0.706772 -2.054724 3.368947 3.190198 8.501315 -8.638298 0.8868293 20.94222 7.032433 3.260729 -25.99952 8.604346 5.522079 -16.54704 10.95463 89.1731 36.06279 -23.23818 -7.391023e-07 -2.399478e-07 9.620255 -9.191993 11.0355 5.916849 5.071417 -20.86247 -1.91936 -90.8814 26.96368 19.34868 -5.359655e-07 8.168299e-07 -21.33577 5.427669 14.16876 9.495203
3.905504 103.4171 41.13753 -1.505131 1.198523 3.478068 7.08103 -17.70753 6.318562 -5.993861e-06 19.90009 4.214113e-06 -7.985286 -7.74328 -3.415705 -4.384526 9.400616 -14.79612 9.360189e-06 37.51543 3.161587e-06 -4.020627 -10.98415 14.98788 -0.5617832 -1.819854 3.923211 3.031434 8.912537 -8.354154 0.8967766 21.21644 6.734453 3.175869 -25.53717 8.207204 5.646216 -16.55222 11.22291 88.75951 36.27473 -22.55616 -6.325627e-07 -2.858902e-07 9.520589 -9.732128 11.39748 6.079024 4.518716 -20.69884 -2.035927 -91.20431 26.75836 19.95647 -3.98123e-07 7.687892e-07 -20.29743 5.098134 13.81075 9.89802
4.061253 104.6858 46.32029 -1.12656 0.2196179 3.077379 6.941442 -13.12763 6.289289 -3.624712e-06 18.77986 2.526803e-06 -7.99314 -8.894095 -3.328718 -4.267641 4.596171 -13.5173 6.399404e-06 44.35924 1.056469e-06 -4.237173 -9.054456 15.70969 -0.572636 -1.477857 4.689736 2.767756 9.378351 -7.908204 0.8844234 21.60018 6.529493 3.198614 -25.01003 7.796065 5.712165 -16.72823 11.57101 87.97621 36.46744 -21.47556 -3.546613e-07 -4.17738e-07 9.670336 -10.73746 11.6146 6.419559 4.128559 -20.60301 -2.184436 -91.56315 26.51662 20.47817 -3.304982e-08 5.348026e-07 -19.58541 4.778949 13.43199 10.18464
